<svg xmlns="http://www.w3.org/2000/svg" viewBox="0 0 693.63 202"><defs><style>.cls-1{fill:#d6d6d6;}.cls-2{fill:#fff;}</style></defs><g id="Layer_2" data-name="Layer 2"><g id="Layer_1-2" data-name="Layer 1"><path class="cls-1" d="M319.75,178.21h.72l4.76-5.72h-3.55l-1.93-.18Zm52.19,0h.73v-6.55c-1.17.17-2.29.6-3.46.72l-2,.11Zm45.67-3.4h.83V157.7l-13.63,1.69Zm-146.36-1.43h.83l12.1-14.57-12.93-1.6ZM325.61,202a4.33,4.33,0,0,1-4.36-4.31v-3.34H319.4v1h-2.23v-1h-1.85v3.32a4.35,4.35,0,0,1-8.7,0V189.5a4.35,4.35,0,0,1,8.7,0v3.31h1.85V182.39H316V180h-1.18V171c-5.11-1.47-8.58-5.25-11-9.79l-16.71-2.07L274,175v3.18h-3.16v11.91H273v-3.82a5,5,0,0,1,10,0v9.39a5,5,0,0,1-10,0v-3.81h-2.11V193H268.3v-1.14h-2.11v3.79a5,5,0,0,1-9.95,0v-9.34a5,5,0,0,1,9.95,0v3.79h2.11V178.16H267V175.4h-1.35V156.51l-12.83-1.59a21.38,21.38,0,0,1,4,12.53,22.71,22.71,0,0,1-45.41,0c.34-6.66,2.52-12.21,7.62-16.72l-31-3.84,0,.56c0,3.27-1.57,5.92-3.51,5.92s-3.51-2.65-3.51-5.92c.07-1.27,0-.8.12-1.41l-38.67-4.79.07,1.18c0,3.34-1.55,6-3.47,6s-3.46-2.7-3.46-6a5.67,5.67,0,0,1,.26-2l-7.1-.88a15.91,15.91,0,0,1,4.45,11.07,16.5,16.5,0,0,1-33,0c.29-5.7,2.61-10.57,7.59-13.67L7,124.46l-1.4-.18L0,103.39,4,102l6.58,15.06,291.09,13.38a4.59,4.59,0,0,1,.31-2.19c0-.9-.24-1.8-.24-2.7l.07-2.5-3.2-.59c-8.44-1.54-16.89-3-25.33-4.65-2.46-.47-4.77-.92-6.95-1.37-6.79-1.38-24.6-6.14-24.13-10.08.3-2.17,1.25-2.88,2.63-3.3a10.34,10.34,0,0,1,2.35-.34,57.71,57.71,0,0,1,7.08.19c5.2.37,12.19,1.18,20.79,2.35l4.9.68c17,2.53,8.88,1.33,24.39,3.59l.05-.19c5-15.21,10.11-34.65,24.85-43.76,3.85-2.37,5-2.58,8.71-3.72l.33-8.07c.35-7.78.66-15.55,1.11-23.32.32-5.55.66-11.1,1.28-16.63.25-2.23.51-4.68.94-6.91.33-1.79.92-5.34,3.17-6.52A4.14,4.14,0,0,1,346.81,0a3.49,3.49,0,0,1,3.54,2.31,14.18,14.18,0,0,1,.9,3A86.44,86.44,0,0,1,352.46,15c1,14.21,1.39,28.44,2,42.66l.15,4.45c20.56,6.23,27.41,29.29,32.8,47.58,8.52-1.22,17-2.49,25.55-3.76l4.9-.68c8.6-1.17,15.59-2,20.79-2.35a57.71,57.71,0,0,1,7.08-.19,10.34,10.34,0,0,1,2.35.34c1.38.42,2.33,1.13,2.63,3.3.47,3.94-17.34,8.7-24.13,10.08-2.18.45-4.49.9-7,1.37-8.44,1.6-16.89,3.11-25.33,4.65-1.65.32-3.3.65-5,.88l-.05,1c-.18,1.87-.92,4-1,6v.28l294.83-13.55L689.67,102l4,1.36L688,124.28l-1.4.18L585.82,137c5,3.1,7.3,8,7.59,13.67a16.5,16.5,0,0,1-33,0,15.86,15.86,0,0,1,4.45-11.07l-7.1.88a5.45,5.45,0,0,1,.26,2c0,3.34-1.55,6-3.46,6s-3.47-2.7-3.47-6l.07-1.18L512.5,146c.15.61,0,.14.12,1.41,0,3.27-1.57,5.92-3.51,5.92s-3.51-2.65-3.51-5.92l0-.56-31,3.84c5.1,4.51,7.28,10.06,7.62,16.72a22.71,22.71,0,0,1-45.41,0,21.38,21.38,0,0,1,4-12.53L424.08,157v19.82h-1.35v2.77h-1.34v11.9h2.11v-3.78a5,5,0,0,1,9.95,0V197a5,5,0,0,1-9.95,0v-3.78h-2.11v1.14h-2.55v-1.14h-2.11v3.81a5,5,0,0,1-10,0v-9.39a5,5,0,0,1,10,0v3.81h2.11v-11.9h-3.16v-3.18l-13.84-16.65-17.18,2.13c-1.53,3.18-4.28,5.42-7.06,7.48V180h-1.18v2.41h-1.18v10.42h1.85V189.5a4.36,4.36,0,0,1,8.71,0v8.17a4.36,4.36,0,0,1-8.71,0v-3.32h-1.85v1H373v-1h-1.85v3.34a4.35,4.35,0,0,1-8.7,0v-8.22a4.35,4.35,0,0,1,8.7,0v3.34H373V182.39h-2.76v-2.77l-5.92-7.13H348.1V182h-1.21v8h2v-3a2.55,2.55,0,1,1,5.1,0v8.63a2.55,2.55,0,1,1-5.1,0v-3.8H344.2v3.61a2.89,2.89,0,0,1-5.77,0V187.2a2.89,2.89,0,0,1,5.77,0V190h1.28v-8H344v-9.54H328.09l-5.92,7.13v2.77H319.4v10.42h1.85v-3.34a4.36,4.36,0,0,1,8.71,0v8.22A4.33,4.33,0,0,1,325.61,202Z"/><path class="cls-2" d="M351,164.54l.54-.11-.18,0Z"/><path class="cls-2" d="M211.51,170.41c.21-1,.36-4.46.68-5.44a20.77,20.77,0,0,1,13.5-13.51,20.75,20.75,0,0,1,12.22,0,20.68,20.68,0,0,1,12,9.82c1.62,3,1.49,6.05,2.11,9.13a18.82,18.82,0,0,0-.61-9.18,20.55,20.55,0,0,0-39.23,0,21.35,21.35,0,0,0-.82,8.21Z"/><path class="cls-2" d="M226.68,168.44a6.85,6.85,0,0,1,.16-.76,5.17,5.17,0,0,1,3.38-3.38,5,5,0,0,1,3.06,0,5.16,5.16,0,0,1,3,2.46,4.14,4.14,0,0,1,.54,1.68,4.73,4.73,0,0,0-.15-2.3,5.15,5.15,0,0,0-10,2.06Z"/><path class="cls-2" d="M231.76,185.54a15.31,15.31,0,0,1-5-.75A16.77,16.77,0,0,1,215.05,168a16.73,16.73,0,0,0,33.43,0,16.8,16.8,0,0,1-8.73,15.57c-2.61,1.41-3.39,1.35-6.27,1.94Z"/><path class="cls-2" d="M228.24,168.23a3.45,3.45,0,0,0,.11.54,3.61,3.61,0,0,0,2.37,2.36,3.22,3.22,0,0,0,1.07.17,3.3,3.3,0,0,0,1.07-.17,3.57,3.57,0,0,0,2.09-1.72,2.94,2.94,0,0,0,.39-1.18,3.51,3.51,0,0,1-.11,1.61,3.6,3.6,0,0,1-6.88,0,3.73,3.73,0,0,1-.15-1.44Z"/><path class="cls-2" d="M435.07,170.41c.2-1,.36-4.46.67-5.44a20.81,20.81,0,0,1,13.51-13.51,20.72,20.72,0,0,1,12.21,0,20.62,20.62,0,0,1,12,9.82c1.63,3,1.49,6.05,2.12,9.13a18.82,18.82,0,0,0-.62-9.18,20.54,20.54,0,0,0-39.22,0,21.16,21.16,0,0,0-.82,8.21Z"/><path class="cls-2" d="M450.24,168.44a6.8,6.8,0,0,1,.15-.76,5.18,5.18,0,0,1,3.39-3.38,5,5,0,0,1,3.06,0,5.19,5.19,0,0,1,3,2.46,4.47,4.47,0,0,1,.54,1.68,4.73,4.73,0,0,0-.16-2.3,5.15,5.15,0,0,0-9.83,0,5.36,5.36,0,0,0-.2,2.06Z"/><path class="cls-2" d="M455.32,185.54a15.27,15.27,0,0,1-5-.75A16.76,16.76,0,0,1,438.61,168,16.73,16.73,0,0,0,472,168a16.79,16.79,0,0,1-8.72,15.57c-2.61,1.41-3.39,1.35-6.28,1.94Z"/><path class="cls-2" d="M451.79,168.23a5.17,5.17,0,0,0,.11.54,3.63,3.63,0,0,0,2.37,2.36,3.3,3.3,0,0,0,1.07.17,3.26,3.26,0,0,0,1.07-.17,3.59,3.59,0,0,0,2.1-1.72,3.08,3.08,0,0,0,.38-1.18,3.26,3.26,0,0,1-.11,1.61,3.6,3.6,0,0,1-6.88,0,3.72,3.72,0,0,1-.14-1.44Z"/><path class="cls-2" d="M557.5,153.11c.14-.69.25-3.06.47-3.73a14.24,14.24,0,0,1,9.27-9.27,14,14,0,0,1,8.38,0,14.19,14.19,0,0,1,8.21,6.74c1.11,2.06,1,4.15,1.45,6.26a13,13,0,0,0-.42-6.29,14.1,14.1,0,0,0-27.49,5.63Z"/><path class="cls-2" d="M567.91,151.76c0-.17.06-.35.11-.52a3.58,3.58,0,0,1,2.33-2.32,3.12,3.12,0,0,1,1-.16,3.16,3.16,0,0,1,1.05.16,3.54,3.54,0,0,1,2,1.69,3,3,0,0,1,.38,1.15,3.35,3.35,0,0,0-.11-1.57,3.53,3.53,0,0,0-6.89,1.41Z"/><path class="cls-2" d="M571.4,163.51A10.59,10.59,0,0,1,568,163a11.52,11.52,0,0,1-8.05-11.56,11.49,11.49,0,0,0,23,0,11.48,11.48,0,0,1-10.3,12Z"/><path class="cls-2" d="M569,151.62c0,.12,0,.25.08.37a2.47,2.47,0,0,0,1.62,1.62,2.28,2.28,0,0,0,.74.12,2.18,2.18,0,0,0,.73-.12,2.45,2.45,0,0,0,1.44-1.18,2.1,2.1,0,0,0,.27-.81,2.32,2.32,0,0,1-.08,1.11,2.47,2.47,0,0,1-4.72,0,2.41,2.41,0,0,1-.1-1Z"/><path class="cls-2" d="M101.6,153.11c.14-.69.24-3.06.46-3.73a14.26,14.26,0,0,1,9.27-9.27,14.07,14.07,0,0,1,8.39,0,14.14,14.14,0,0,1,8.2,6.74c1.12,2.06,1,4.15,1.45,6.26a12.79,12.79,0,0,0-.42-6.29,14.1,14.1,0,0,0-26.93,0,14.63,14.63,0,0,0-.56,5.63Z"/><path class="cls-2" d="M112,151.76a4.82,4.82,0,0,1,.11-.52,3.54,3.54,0,0,1,2.32-2.32,3.53,3.53,0,0,1,2.1,0,3.6,3.6,0,0,1,2.06,1.69,3,3,0,0,1,.37,1.15,3.22,3.22,0,0,0-.1-1.57A3.53,3.53,0,0,0,112,151.6Z"/><path class="cls-2" d="M115.5,163.51a10.55,10.55,0,0,1-3.42-.52,11.5,11.5,0,0,1-8-11.56,11.48,11.48,0,0,0,22.94,0,11.48,11.48,0,0,1-10.29,12Z"/><path class="cls-2" d="M113.08,151.62a2.41,2.41,0,0,0,.07.37,2.47,2.47,0,0,0,1.63,1.62,2.31,2.31,0,0,0,1.47,0,2.45,2.45,0,0,0,1.44-1.18,2.08,2.08,0,0,0,.26-.81,2.32,2.32,0,0,1-.07,1.11,2.48,2.48,0,0,1-4.73,0,2.81,2.81,0,0,1-.1-1Z"/><path class="cls-2" d="M389,116c-.09-1.11,0-.18-.58-2.73,11-1.49,4.83-.6,18.62-2.76,6.71-1,11.81-1.82,18.53-2.77,3-.42,7-1,10.2-1.33a56,56,0,0,1,7.87-.6,9.31,9.31,0,0,1,1.06.14l.18.15c-.72.57-4.61,1.21-5.35,1.35-4.56.88-8.44,1.55-13.14,2.35-5.76,1-12.47,2.09-18.24,3-4.83.79-8.57,1.4-13.24,2.18l-4.07.69Z"/><path class="cls-2" d="M301.68,142.48c-72.48-4.95-145-9.83-217.41-15.21-12.9-1-25.81-1.93-38.71-3-4.05-.33-9-.74-13.07-1.12-1.53-.14-3.06-.28-4.59-.44-.5,0-4-.25-4.95-.7a77.68,77.68,0,0,1,9.77,0c13.66.41,27.31,1.06,41,1.69q27.1,1.25,54.2,2.62,86.91,4.33,173.81,9.06Z"/><path class="cls-2" d="M387.61,142.78l.38-7.14c73.65-3.92,147.3-7.9,221-11.38,12.93-.61,25.86-1.21,38.8-1.73,4.06-.16,9-.35,13.15-.47,1.55,0,3.09-.09,4.64-.12a31.08,31.08,0,0,1,5.13.09,69.38,69.38,0,0,1-9.54,1.14c-13.59,1.25-27.2,2.25-40.8,3.28q-27.09,2-54.2,4-87.93,6.28-175.88,12.19Z"/><path class="cls-2" d="M302.66,115.85c-14.67-2.59-29.38-5-44-7.75-1.9-.36-5.26-1-7.42-1.51-.23,0-2.39-.43-2.78-.86l.17-.14a9.41,9.41,0,0,1,3-.07c5.19.33,10.88,1.24,16,2,6.72,1,11.65,1.82,18.37,2.9,5.77.94,11.54,2,17.34,2.76l-.59,2.53Z"/><path class="cls-2" d="M348.2,61.55a9.85,9.85,0,0,0-2.33-.19,9,9,0,0,0-1.83.11c.2-14.35.18-28.71.76-43,.1-2.39.22-4.79.37-7.18.09-1.39.22-2.78.36-4.16a23.31,23.31,0,0,1,.59-3.52,5.17,5.17,0,0,1,.36-.75l.19-.09.16.09a4.74,4.74,0,0,1,.29.74,48.78,48.78,0,0,1,.68,7.55c.21,5.31.26,10.31.31,15.65.1,11.53.06,23.07.09,34.61Z"/><path class="cls-2" d="M358.93,108.48h0l.07-1.35a14.42,14.42,0,0,0-1.63-6.35,13.44,13.44,0,0,0-25.21,7.7h0c.47-2.29.42-2.92,1.56-5a13.63,13.63,0,0,1,11.83-7,12.32,12.32,0,0,1,4,.59,13.47,13.47,0,0,1,8.84,8.77A25,25,0,0,1,358.93,108.48Zm-44.81,39c-8.11-10.14-9.85-21.53-6.65-33.87l.1-.34c.95-.38.51-.22,1.33-.51,4.68-1.61,9.73-1.85,14.64-2a12.29,12.29,0,0,0,.13-2.5,12.29,12.29,0,0,0-.13-2.5,64.63,64.63,0,0,0-10.84,1c-1.17.21-2.29.65-3.44,1C312.21,97.67,316,87.85,321.63,79c6.26-9.23,13.89-13.85,24-13.85s17.91,4.53,24.22,13.63c6.08,8.77,9.23,19,12.53,29-4.59-1.65-9.51-1.78-14.33-2a12.29,12.29,0,0,0-.13,2.5,12.29,12.29,0,0,0,.13,2.5c4.91.2,10,.44,14.65,2,.82.29.37.13,1.32.51l.22.75c2.81,11.16-1.5,22.9-8.57,31.65-4.43-9.65-8.77-20.88-18.11-27a27.15,27.15,0,0,0-2.93-1.73h0c-2.39,2.45-5.75,3.4-9.08,3.57a13.19,13.19,0,0,1-9.07-3.55,36.74,36.74,0,0,0-3.64,2c-8,5.74-12.35,15.11-16.49,23.68ZM360.4,79.55l3.75.65-4.88-8-12.38,0s-.11,6.87,0,6.87c3.36-.09,1.4-.06,5.9,0Zm-28.14-7.3-4.89,8a73.39,73.39,0,0,1,17.26-1.13c.12,0,0-6.87,0-6.87Z"/></g></g></svg>