<?xml version="1.0" encoding="UTF-8" standalone="no"?>
<svg
   xmlns:dc="http://purl.org/dc/elements/1.1/"
   xmlns:cc="http://creativecommons.org/ns#"
   xmlns:rdf="http://www.w3.org/1999/02/22-rdf-syntax-ns#"
   xmlns:svg="http://www.w3.org/2000/svg"
   xmlns="http://www.w3.org/2000/svg"
   viewBox="0 0 452 172"
   height="172"
   width="452"
   xml:space="preserve"
   id="svg2"
   version="1.1"><metadata
     id="metadata8"><rdf:RDF><cc:Work
         rdf:about=""><dc:format>image/svg+xml</dc:format><dc:type
           rdf:resource="http://purl.org/dc/dcmitype/StillImage" /></cc:Work></rdf:RDF></metadata><defs
     id="defs6" /><g
     transform="matrix(1.3333333,0,0,-1.3333333,0,172)"
     id="g10"><g
       transform="scale(0.1)"
       id="g12"><path
         id="path14"
         style="fill:#ffffff;fill-opacity:1;fill-rule:nonzero;stroke:none"
         d="m 2024.38,36.25 v 22.5 h -37.5 v -22.5 h 37.5" /><path
         id="path16"
         style="fill:none;stroke:#000000;stroke-width:4;stroke-linecap:butt;stroke-linejoin:miter;stroke-miterlimit:4;stroke-dasharray:none;stroke-opacity:1"
         d="m 2024.38,36.25 v 22.5 h -37.5 v -22.5 z" /><path
         id="path18"
         style="fill:none;stroke:#000000;stroke-width:5;stroke-linecap:round;stroke-linejoin:miter;stroke-miterlimit:4;stroke-dasharray:none;stroke-opacity:1"
         d="M 1694.38,1285 V 581.875" /><path
         id="path20"
         style="fill:none;stroke:#000000;stroke-width:5;stroke-linecap:butt;stroke-linejoin:miter;stroke-miterlimit:4;stroke-dasharray:none;stroke-opacity:1"
         d="m 1694.38,187.469 c 52.71,0 95.46,65.906 95.46,122.531 0,56.625 -42.75,92.531 -95.46,92.531" /><path
         id="path22"
         style="fill:none;stroke:#000000;stroke-width:8.80000019;stroke-linecap:butt;stroke-linejoin:miter;stroke-miterlimit:4;stroke-dasharray:none;stroke-opacity:1"
         d="m 1694.38,123.547 c 126.91,0 219.8,99.223 219.8,233.953 0,134.73 -92.89,223.953 -219.8,223.953" /><path
         id="path24"
         style="fill:none;stroke:#000000;stroke-width:7.5;stroke-linecap:round;stroke-linejoin:miter;stroke-miterlimit:4;stroke-dasharray:none;stroke-opacity:1"
         d="m 1804.38,515 c 0,0 112.5,-77.5 70,-197.5" /><path
         id="path26"
         style="fill:none;stroke:#000000;stroke-width:7.5;stroke-linecap:butt;stroke-linejoin:miter;stroke-miterlimit:4;stroke-dasharray:none;stroke-opacity:1"
         d="m 1835.63,536.875 585,52.5 c 0,0 31.25,-1.875 3.75,-16.875 -27.5,-15 -535,-100 -535,-100" /><path
         id="path28"
         style="fill:none;stroke:#000000;stroke-width:5;stroke-linecap:butt;stroke-linejoin:miter;stroke-miterlimit:4;stroke-dasharray:none;stroke-opacity:1"
         d="m 1876.88,495 552.5,87.5" /><path
         id="path30"
         style="fill:none;stroke:#000000;stroke-width:6.5;stroke-linecap:butt;stroke-linejoin:miter;stroke-miterlimit:4;stroke-dasharray:none;stroke-opacity:1"
         d="m 1694.38,1285 c 0,0 15,-5 15,-20 0,-15 12.5,-685 12.5,-685" /><path
         id="path32"
         style="fill:none;stroke:#000000;stroke-width:7.5;stroke-linecap:butt;stroke-linejoin:miter;stroke-miterlimit:4;stroke-dasharray:none;stroke-opacity:1"
         d="m 1889.38,162.5 c 0,0 -2.5,-27.5 -25,-30 -22.5,-2.5 -102.5,0 -102.5,0" /><path
         id="path34"
         style="fill:#000000;fill-opacity:1;fill-rule:nonzero;stroke:none"
         d="m 1783.13,403.75 -11.25,46.875 H 1702.5 V 407.5 l 80.63,-3.75" /><path
         id="path36"
         style="fill:#000000;fill-opacity:1;fill-rule:nonzero;stroke:none"
         d="m 1818.75,391.875 -20,58.75 h -15 l 11.88,-49.375 23.12,-9.375" /><path
         id="path38"
         style="fill:#000000;fill-opacity:1;fill-rule:nonzero;stroke:none"
         d="m 1825,396.25 -18.75,54.375 11.25,1.875 18.75,-46.25 -11.25,-10" /><path
         id="path40"
         style="fill:#000000;fill-opacity:1;fill-rule:nonzero;stroke:none"
         d="M 1749.38,133.125 1740,156.25 h -45.62 v -23.125 h 55" /><path
         id="path42"
         style="fill:#ffffff;fill-opacity:1;fill-rule:nonzero;stroke:none"
         d="m 1743.75,135.625 3.75,-43.75 -8.75,3.75 -3.75,35 8.75,6.875" /><path
         id="path44"
         style="fill:none;stroke:#000000;stroke-width:5;stroke-linecap:butt;stroke-linejoin:miter;stroke-miterlimit:4;stroke-dasharray:none;stroke-opacity:1"
         d="m 1743.75,135.625 3.75,-43.75 -8.75,3.75 -3.75,35 8.75,6.875" /><path
         id="path46"
         style="fill:#ffffff;fill-opacity:1;fill-rule:nonzero;stroke:none"
         d="M 1694.38,153.125 H 1710 V 105 l -6.56,-6.5625 V 56.25 h 8.44 V 35.625 h -17.5" /><path
         id="path48"
         style="fill:none;stroke:#000000;stroke-width:5;stroke-linecap:butt;stroke-linejoin:miter;stroke-miterlimit:4;stroke-dasharray:none;stroke-opacity:1"
         d="M 1694.38,153.125 H 1710 V 105 l -6.56,-6.5625 V 56.25 h 8.44 V 35.625 h -17.5" /><path
         id="path50"
         style="fill:#ffffff;fill-opacity:1;fill-rule:nonzero;stroke:none"
         d="m 1708.75,140 h -15" /><path
         id="path52"
         style="fill:none;stroke:#000000;stroke-width:4;stroke-linecap:butt;stroke-linejoin:miter;stroke-miterlimit:4;stroke-dasharray:none;stroke-opacity:1"
         d="m 1708.75,140 h -15" /><path
         id="path54"
         style="fill:#ffffff;fill-opacity:1;fill-rule:nonzero;stroke:none"
         d="m 1708.75,116.25 h -15" /><path
         id="path56"
         style="fill:none;stroke:#000000;stroke-width:4;stroke-linecap:butt;stroke-linejoin:miter;stroke-miterlimit:4;stroke-dasharray:none;stroke-opacity:1"
         d="m 1708.75,116.25 h -15" /><path
         id="path58"
         style="fill:#ffffff;fill-opacity:1;fill-rule:nonzero;stroke:none"
         d="m 1703.44,98.4375 h -9.69" /><path
         id="path60"
         style="fill:none;stroke:#000000;stroke-width:4;stroke-linecap:butt;stroke-linejoin:miter;stroke-miterlimit:4;stroke-dasharray:none;stroke-opacity:1"
         d="m 1703.44,98.4375 h -9.69" /><path
         id="path62"
         style="fill:#000000;fill-opacity:1;fill-rule:nonzero;stroke:none"
         d="m 1711.18,6.25 v 63.125 c 0,9.7617 8.71,17.6797 19.45,17.6797 10.73,0 19.44,-7.918 19.44,-17.6797 V 6.25" /><path
         id="path64"
         style="fill:none;stroke:#000000;stroke-width:4;stroke-linecap:butt;stroke-linejoin:miter;stroke-miterlimit:4;stroke-dasharray:none;stroke-opacity:1"
         d="m 1711.18,6.25 v 63.125 c 0,9.7617 8.71,17.6797 19.45,17.6797 10.73,0 19.44,-7.918 19.44,-17.6797 V 6.25" /><path
         id="path66"
         style="fill:#000000;fill-opacity:1;fill-rule:nonzero;stroke:none"
         d="M 1946.13,6.70703 V 81.8398 c 0,11.1797 9.96,20.2422 22.26,20.2422 12.29,0 22.26,-9.0625 22.26,-20.2422 V 7.42188" /><path
         id="path68"
         style="fill:none;stroke:#000000;stroke-width:4;stroke-linecap:butt;stroke-linejoin:miter;stroke-miterlimit:4;stroke-dasharray:none;stroke-opacity:1"
         d="M 1946.13,6.70703 V 81.8398 c 0,11.1797 9.96,20.2422 22.26,20.2422 12.29,0 22.26,-9.0625 22.26,-20.2422 V 7.42188" /><path
         id="path70"
         style="fill:#000000;fill-opacity:1;fill-rule:nonzero;stroke:none"
         d="M 2017.38,6.70703 V 81.8398 c 0,11.1797 9.96,20.2422 22.26,20.2422 12.29,0 22.26,-9.0625 22.26,-20.2422 V 7.42188" /><path
         id="path72"
         style="fill:none;stroke:#000000;stroke-width:4;stroke-linecap:butt;stroke-linejoin:miter;stroke-miterlimit:4;stroke-dasharray:none;stroke-opacity:1"
         d="M 2017.38,6.70703 V 81.8398 c 0,11.1797 9.96,20.2422 22.26,20.2422 12.29,0 22.26,-9.0625 22.26,-20.2422 V 7.42188" /><path
         id="path74"
         style="fill:none;stroke:#000000;stroke-width:5;stroke-linecap:butt;stroke-linejoin:miter;stroke-miterlimit:4;stroke-dasharray:none;stroke-opacity:1"
         d="m 1890.21,200.832 c 0,0 73.33,33.336 256.67,46.668 183.33,13.332 1216.66,110 1216.66,110" /><path
         id="path76"
         style="fill:none;stroke:#000000;stroke-width:5;stroke-linecap:butt;stroke-linejoin:miter;stroke-miterlimit:4;stroke-dasharray:none;stroke-opacity:1"
         d="m 2609.38,317.5 c 0,0 40,-16.25 16.25,-53.75" /><path
         id="path78"
         style="fill:none;stroke:#000000;stroke-width:5;stroke-linecap:butt;stroke-linejoin:miter;stroke-miterlimit:4;stroke-dasharray:none;stroke-opacity:1"
         d="m 2965,343.125 c 0,0 26.67,-20 20,-40" /><path
         id="path80"
         style="fill:none;stroke:#000000;stroke-width:6;stroke-linecap:butt;stroke-linejoin:miter;stroke-miterlimit:4;stroke-dasharray:none;stroke-opacity:1"
         d="m 2447.5,243.125 c 0,0 13.75,-50 30,1.25" /><path
         id="path82"
         style="fill:none;stroke:#000000;stroke-width:6;stroke-linecap:butt;stroke-linejoin:miter;stroke-miterlimit:4;stroke-dasharray:none;stroke-opacity:1"
         d="m 2757.5,275.625 c 0,0 13.75,-50 30,1.25" /><path
         id="path84"
         style="fill:none;stroke:#000000;stroke-width:6;stroke-linecap:butt;stroke-linejoin:miter;stroke-miterlimit:4;stroke-dasharray:none;stroke-opacity:1"
         d="M 2234.38,292.5 V 258.75" /><path
         id="path86"
         style="fill:none;stroke:#000000;stroke-width:6;stroke-linecap:butt;stroke-linejoin:miter;stroke-miterlimit:4;stroke-dasharray:none;stroke-opacity:1"
         d="M 2308.13,297.5 V 263.75" /><path
         id="path88"
         style="fill:#000000;fill-opacity:1;fill-rule:nonzero;stroke:none"
         d="m 2396.88,6.25 h -702.5" /><path
         id="path90"
         style="fill:none;stroke:#000000;stroke-width:4;stroke-linecap:butt;stroke-linejoin:miter;stroke-miterlimit:4;stroke-dasharray:none;stroke-opacity:1"
         d="m 2396.88,6.25 h -702.5" /><path
         id="path92"
         style="fill:#000000;fill-opacity:1;fill-rule:nonzero;stroke:none"
         d="m 1998.13,37.5 v 21.25 l -3.75,25 V 192.5" /><path
         id="path94"
         style="fill:none;stroke:#000000;stroke-width:4;stroke-linecap:butt;stroke-linejoin:miter;stroke-miterlimit:4;stroke-dasharray:none;stroke-opacity:1"
         d="m 1998.13,37.5 v 21.25 l -3.75,25 V 192.5" /><path
         id="path96"
         style="fill:#000000;fill-opacity:1;fill-rule:nonzero;stroke:none"
         d="m 2010.63,37.5 v 21.25 l 3.75,25 v 115.625" /><path
         id="path98"
         style="fill:none;stroke:#000000;stroke-width:4;stroke-linecap:butt;stroke-linejoin:miter;stroke-miterlimit:4;stroke-dasharray:none;stroke-opacity:1"
         d="m 2010.63,37.5 v 21.25 l 3.75,25 v 115.625" /><path
         id="path100"
         style="fill:#000000;fill-opacity:1;fill-rule:nonzero;stroke:none"
         d="m 1995.63,81.875 h 18.75" /><path
         id="path102"
         style="fill:none;stroke:#000000;stroke-width:4;stroke-linecap:butt;stroke-linejoin:miter;stroke-miterlimit:4;stroke-dasharray:none;stroke-opacity:1"
         d="m 1995.63,81.875 h 18.75" /><path
         id="path104"
         style="fill:#ffffff;fill-opacity:1;fill-rule:nonzero;stroke:none"
         d="M 1954.38,181.875 1991.88,140 h 24.37 v -3.125 c 0,0 46.25,8.125 56.88,3.125 l 2.5,-20 h -6.88 l -1.87,13.75 c 0,0 -42.5,1.25 -51.88,-9.375 h -23.75 v 5 l -47.5,50" /><path
         id="path106"
         style="fill:none;stroke:#000000;stroke-width:4;stroke-linecap:butt;stroke-linejoin:miter;stroke-miterlimit:4;stroke-dasharray:none;stroke-opacity:1"
         d="M 1954.38,181.875 1991.88,140 h 24.37 v -3.125 c 0,0 46.25,8.125 56.88,3.125 l 2.5,-20 h -6.88 l -1.87,13.75 c 0,0 -42.5,1.25 -51.88,-9.375 h -23.75 v 5 l -47.5,50" /><path
         id="path108"
         style="fill:none;stroke:#000000;stroke-width:7.5;stroke-linecap:butt;stroke-linejoin:miter;stroke-miterlimit:4;stroke-dasharray:none;stroke-opacity:1"
         d="m 1894.38,250 -5,-87.5 c 82.5,40 280,55 280,55 l 190,17.5 c 0,0 955.32,100.832 997.5,110 57.5,12.5 -17.5,27.5 -17.5,27.5 l -1030,-75 c -65,7.5 -75,-5 -75,-5 l -322.5,2.5" /><path
         id="path110"
         style="fill:#ffffff;fill-opacity:1;fill-rule:nonzero;stroke:none"
         d="m 2271.88,54.0117 c 113.39,0 122.5,34.2735 122.5,92.0903 0,57.816 -54.85,129.886 -122.5,129.886 -67.66,0 -122.51,-72.07 -122.51,-129.886 0,-57.8168 12.26,-92.0903 122.51,-92.0903" /><path
         id="path112"
         style="fill:#FF841F;stroke:#000000;stroke-width:6;stroke-linecap:butt;stroke-linejoin:miter;stroke-miterlimit:4;stroke-dasharray:none;stroke-opacity:1"
         d="m 2271.88,54.0117 c 113.39,0 122.5,34.2735 122.5,92.0903 0,57.816 -54.85,129.886 -122.5,129.886 -67.66,0 -122.51,-72.07 -122.51,-129.886 0,-57.8168 12.26,-92.0903 122.51,-92.0903 z" /><path
         id="path114"
         style="fill:#FF841F;fill-opacity:1;fill-rule:nonzero;stroke:none"
         d="m 2271.88,76.9141 c 90,0 97.22,27.1989 97.22,73.0859 0,45.887 -43.53,103.086 -97.22,103.086 -53.7,0 -97.23,-57.199 -97.23,-103.086 0,-45.887 9.73,-73.0859 97.23,-73.0859" /><path
         id="path116"
         style="fill:none;stroke:#000000;stroke-width:6;stroke-linecap:butt;stroke-linejoin:miter;stroke-miterlimit:4;stroke-dasharray:none;stroke-opacity:1"
         d="m 2271.88,76.9141 c 90,0 97.22,27.1989 97.22,73.0859 0,45.887 -43.53,103.086 -97.22,103.086 -53.7,0 -97.23,-57.199 -97.23,-103.086 0,-45.887 9.73,-73.0859 97.23,-73.0859 z" /><path
         id="path118"
         style="fill:#000000;fill-opacity:1;fill-rule:nonzero;stroke:none"
         d="m 1970.63,165.625 -1.25,21.875" /><path
         id="path120"
         style="fill:none;stroke:#000000;stroke-width:6;stroke-linecap:butt;stroke-linejoin:miter;stroke-miterlimit:4;stroke-dasharray:none;stroke-opacity:1"
         d="m 1970.63,165.625 -1.25,21.875" /><path
         id="path122"
         style="fill:#000000;fill-opacity:1;fill-rule:nonzero;stroke:none"
         d="M 2033.75,200.625 V 141.25" /><path
         id="path124"
         style="fill:none;stroke:#000000;stroke-width:6;stroke-linecap:butt;stroke-linejoin:miter;stroke-miterlimit:4;stroke-dasharray:none;stroke-opacity:1"
         d="M 2033.75,200.625 V 141.25" /><path
         id="path126"
         style="fill:none;stroke:#000000;stroke-width:6;stroke-linecap:round;stroke-linejoin:miter;stroke-miterlimit:4;stroke-dasharray:none;stroke-opacity:1"
         d="m 1720.63,635 c 0,0 0,77.5 -26.25,88.125" /><path
         id="path128"
         style="fill:none;stroke:#000000;stroke-width:5;stroke-linecap:butt;stroke-linejoin:miter;stroke-miterlimit:4;stroke-dasharray:none;stroke-opacity:1"
         d="m 1694.38,187.469 c -52.72,0 -95.46,65.906 -95.46,122.531 0,56.625 42.74,92.531 95.46,92.531" /><path
         id="path130"
         style="fill:none;stroke:#000000;stroke-width:8.80000019;stroke-linecap:butt;stroke-linejoin:miter;stroke-miterlimit:4;stroke-dasharray:none;stroke-opacity:1"
         d="m 1694.38,123.547 c -126.92,0 -219.81,99.223 -219.81,233.953 0,134.73 92.89,223.953 219.81,223.953" /><path
         id="path132"
         style="fill:none;stroke:#000000;stroke-width:7.5;stroke-linecap:round;stroke-linejoin:miter;stroke-miterlimit:4;stroke-dasharray:none;stroke-opacity:1"
         d="m 1584.38,515 c 0,0 -112.5,-77.5 -70,-197.5" /><path
         id="path134"
         style="fill:none;stroke:#000000;stroke-width:7.5;stroke-linecap:butt;stroke-linejoin:miter;stroke-miterlimit:4;stroke-dasharray:none;stroke-opacity:1"
         d="m 1553.13,536.875 -585.005,52.5 c 0,0 -31.25,-1.875 -3.75,-16.875 27.5,-15 535.005,-100 535.005,-100" /><path
         id="path136"
         style="fill:none;stroke:#000000;stroke-width:5;stroke-linecap:butt;stroke-linejoin:miter;stroke-miterlimit:4;stroke-dasharray:none;stroke-opacity:1"
         d="M 1511.88,495 959.375,582.5" /><path
         id="path138"
         style="fill:none;stroke:#000000;stroke-width:6.5;stroke-linecap:butt;stroke-linejoin:miter;stroke-miterlimit:4;stroke-dasharray:none;stroke-opacity:1"
         d="m 1694.38,1285 c 0,0 -15,-5 -15,-20 0,-15 -12.5,-685 -12.5,-685" /><path
         id="path140"
         style="fill:none;stroke:#000000;stroke-width:7.5;stroke-linecap:butt;stroke-linejoin:miter;stroke-miterlimit:4;stroke-dasharray:none;stroke-opacity:1"
         d="m 1499.38,162.5 c 0,0 2.5,-27.5 25,-30 22.5,-2.5 102.5,0 102.5,0" /><path
         id="path142"
         style="fill:#000000;fill-opacity:1;fill-rule:nonzero;stroke:none"
         d="m 1605.63,403.75 11.25,46.875 h 69.37 V 407.5 l -80.62,-3.75" /><path
         id="path144"
         style="fill:#000000;fill-opacity:1;fill-rule:nonzero;stroke:none"
         d="m 1570,391.875 20,58.75 h 15 L 1593.13,401.25 1570,391.875" /><path
         id="path146"
         style="fill:#000000;fill-opacity:1;fill-rule:nonzero;stroke:none"
         d="m 1563.75,396.25 18.75,54.375 -11.25,1.875 -18.75,-46.25 11.25,-10" /><path
         id="path148"
         style="fill:#000000;fill-opacity:1;fill-rule:nonzero;stroke:none"
         d="m 1639.38,133.125 9.37,23.125 h 45.63 v -23.125 h -55" /><path
         id="path150"
         style="fill:#ffffff;fill-opacity:1;fill-rule:nonzero;stroke:none"
         d="m 1645,135.625 -3.75,-43.75 8.75,3.75 3.75,35 -8.75,6.875" /><path
         id="path152"
         style="fill:none;stroke:#000000;stroke-width:5;stroke-linecap:butt;stroke-linejoin:miter;stroke-miterlimit:4;stroke-dasharray:none;stroke-opacity:1"
         d="m 1645,135.625 -3.75,-43.75 8.75,3.75 3.75,35 -8.75,6.875" /><path
         id="path154"
         style="fill:#ffffff;fill-opacity:1;fill-rule:nonzero;stroke:none"
         d="m 1694.38,153.125 h -15.63 V 105 l 6.56,-6.5625 V 56.25 h -8.43 V 35.625 h 17.5" /><path
         id="path156"
         style="fill:none;stroke:#000000;stroke-width:5;stroke-linecap:butt;stroke-linejoin:miter;stroke-miterlimit:4;stroke-dasharray:none;stroke-opacity:1"
         d="m 1694.38,153.125 h -15.63 V 105 l 6.56,-6.5625 V 56.25 h -8.43 V 35.625 h 17.5" /><path
         id="path158"
         style="fill:#ffffff;fill-opacity:1;fill-rule:nonzero;stroke:none"
         d="m 1680,140 h 15" /><path
         id="path160"
         style="fill:none;stroke:#000000;stroke-width:4;stroke-linecap:butt;stroke-linejoin:miter;stroke-miterlimit:4;stroke-dasharray:none;stroke-opacity:1"
         d="m 1680,140 h 15" /><path
         id="path162"
         style="fill:#ffffff;fill-opacity:1;fill-rule:nonzero;stroke:none"
         d="m 1680,116.25 h 15" /><path
         id="path164"
         style="fill:none;stroke:#000000;stroke-width:4;stroke-linecap:butt;stroke-linejoin:miter;stroke-miterlimit:4;stroke-dasharray:none;stroke-opacity:1"
         d="m 1680,116.25 h 15" /><path
         id="path166"
         style="fill:#ffffff;fill-opacity:1;fill-rule:nonzero;stroke:none"
         d="M 1685.31,98.4375 H 1695" /><path
         id="path168"
         style="fill:none;stroke:#000000;stroke-width:4;stroke-linecap:butt;stroke-linejoin:miter;stroke-miterlimit:4;stroke-dasharray:none;stroke-opacity:1"
         d="M 1685.31,98.4375 H 1695" /><path
         id="path170"
         style="fill:#000000;fill-opacity:1;fill-rule:nonzero;stroke:none"
         d="m 1677.57,5.625 v 63.75 c 0,9.7617 -8.71,17.6797 -19.44,17.6797 -10.74,0 -19.45,-7.918 -19.45,-17.6797 V 6.25" /><path
         id="path172"
         style="fill:none;stroke:#000000;stroke-width:4;stroke-linecap:butt;stroke-linejoin:miter;stroke-miterlimit:4;stroke-dasharray:none;stroke-opacity:1"
         d="m 1677.57,5.625 v 63.75 c 0,9.7617 -8.71,17.6797 -19.44,17.6797 -10.74,0 -19.45,-7.918 -19.45,-17.6797 V 6.25" /><path
         id="path174"
         style="fill:none;stroke:#000000;stroke-width:4;stroke-linecap:butt;stroke-linejoin:miter;stroke-miterlimit:4;stroke-dasharray:none;stroke-opacity:1"
         d="M 1442.63,6.70703 V 81.8398 c 0,11.1797 -9.97,20.2422 -22.27,20.2422 -12.29,0 -22.26,-9.0625 -22.26,-20.2422 V 7.42188" /><path
         id="path176"
         style="fill:none;stroke:#000000;stroke-width:4;stroke-linecap:butt;stroke-linejoin:miter;stroke-miterlimit:4;stroke-dasharray:none;stroke-opacity:1"
         d="M 1371.38,6.70703 V 81.8398 c 0,11.1797 -9.97,20.2422 -22.27,20.2422 -12.29,0 -22.26,-9.0625 -22.26,-20.2422 V 7.42188" /><path
         id="path178"
         style="fill:none;stroke:#000000;stroke-width:5;stroke-linecap:butt;stroke-linejoin:miter;stroke-miterlimit:4;stroke-dasharray:none;stroke-opacity:1"
         d="m 1498.54,200.832 c 0,0 -73.33,33.336 -256.66,46.668 -183.34,13.332 -1216.673,110 -1216.673,110" /><path
         id="path180"
         style="fill:none;stroke:#000000;stroke-width:5;stroke-linecap:butt;stroke-linejoin:miter;stroke-miterlimit:4;stroke-dasharray:none;stroke-opacity:1"
         d="m 779.375,317.5 c 0,0 -40,-16.25 -16.25,-53.75" /><path
         id="path182"
         style="fill:none;stroke:#000000;stroke-width:5;stroke-linecap:butt;stroke-linejoin:miter;stroke-miterlimit:4;stroke-dasharray:none;stroke-opacity:1"
         d="m 423.75,343.125 c 0,0 -26.668,-20 -20,-40" /><path
         id="path184"
         style="fill:none;stroke:#000000;stroke-width:6;stroke-linecap:butt;stroke-linejoin:miter;stroke-miterlimit:4;stroke-dasharray:none;stroke-opacity:1"
         d="m 941.25,243.125 c 0,0 -13.75,-50 -30,1.25" /><path
         id="path186"
         style="fill:none;stroke:#000000;stroke-width:6;stroke-linecap:butt;stroke-linejoin:miter;stroke-miterlimit:4;stroke-dasharray:none;stroke-opacity:1"
         d="m 631.25,275.625 c 0,0 -13.75,-50 -30,1.25" /><path
         id="path188"
         style="fill:none;stroke:#000000;stroke-width:6;stroke-linecap:butt;stroke-linejoin:miter;stroke-miterlimit:4;stroke-dasharray:none;stroke-opacity:1"
         d="M 1154.38,292.5 V 258.75" /><path
         id="path190"
         style="fill:none;stroke:#000000;stroke-width:6;stroke-linecap:butt;stroke-linejoin:miter;stroke-miterlimit:4;stroke-dasharray:none;stroke-opacity:1"
         d="M 1080.63,297.5 V 263.75" /><path
         id="path192"
         style="fill:#000000;fill-opacity:1;fill-rule:nonzero;stroke:none"
         d="M 991.875,6.25 H 1694.38" /><path
         id="path194"
         style="fill:none;stroke:#000000;stroke-width:4;stroke-linecap:butt;stroke-linejoin:miter;stroke-miterlimit:4;stroke-dasharray:none;stroke-opacity:1"
         d="M 991.875,6.25 H 1694.38" /><path
         id="path196"
         style="fill:none;stroke:#000000;stroke-width:7.5;stroke-linecap:butt;stroke-linejoin:miter;stroke-miterlimit:4;stroke-dasharray:none;stroke-opacity:1"
         d="m 1494.38,250 5,-87.5 c -82.5,40 -280,55 -280,55 l -190,17.5 c 0,0 -955.3331,100.832 -997.505,110 -57.5,12.5 17.5,27.5 17.5,27.5 l 1030.005,-75 c 65,7.5 75,-5 75,-5 l 322.5,2.5" /><path
         id="path198"
         style="fill:#ffffff;fill-opacity:1;fill-rule:nonzero;stroke:none"
         d="m 1116.88,54.0117 c -113.4,0 -122.509,34.2735 -122.509,92.0903 0,57.816 54.849,129.886 122.509,129.886 67.65,0 122.5,-72.07 122.5,-129.886 0,-57.8168 -12.25,-92.0903 -122.5,-92.0903" /><path
         id="path200"
         style="fill:#FF1F1F;stroke:#000000;stroke-width:6;stroke-linecap:butt;stroke-linejoin:miter;stroke-miterlimit:4;stroke-dasharray:none;stroke-opacity:1"
         d="m 1116.88,54.0117 c -113.4,0 -122.509,34.2735 -122.509,92.0903 0,57.816 54.849,129.886 122.509,129.886 67.65,0 122.5,-72.07 122.5,-129.886 0,-57.8168 -12.25,-92.0903 -122.5,-92.0903 z" /><path
         id="path202" class="leftmotor"
         style="fill:#FF1F1F;fill-opacity:1;fill-rule:nonzero;stroke:none"
         d="m 1116.88,76.9141 c -90,0 -97.23,27.1989 -97.23,73.0859 0,45.887 43.53,103.086 97.23,103.086 53.69,0 97.22,-57.199 97.22,-103.086 0,-45.887 -9.72,-73.0859 -97.22,-73.0859" /><path
         id="path204"
         style="fill:none;stroke:#000000;stroke-width:6;stroke-linecap:butt;stroke-linejoin:miter;stroke-miterlimit:4;stroke-dasharray:none;stroke-opacity:1"
         d="m 1116.88,76.9141 c -90,0 -97.23,27.1989 -97.23,73.0859 0,45.887 43.53,103.086 97.23,103.086 53.69,0 97.22,-57.199 97.22,-103.086 0,-45.887 -9.72,-73.0859 -97.22,-73.0859 z" /><path
         id="path206"
         style="fill:none;stroke:#000000;stroke-width:6;stroke-linecap:round;stroke-linejoin:miter;stroke-miterlimit:4;stroke-dasharray:none;stroke-opacity:1"
         d="m 1668.13,635 c 0,0 0,77.5 26.25,88.125" /></g></g></svg>